<mxfile host="app.diagrams.net" agent="Mozilla/5.0 (Macintosh; Intel Mac OS X 10_15_7) AppleWebKit/537.36 (KHTML, like Gecko) Chrome/134.0.0.0 Safari/537.36" version="26.1.1">
  <diagram name="Page-1" id="q_smIXmNjD3gQj3FoVh2">
    <mxGraphModel dx="2280" dy="2551" grid="1" gridSize="10" guides="1" tooltips="1" connect="1" arrows="1" fold="1" page="1" pageScale="1" pageWidth="827" pageHeight="1169" math="0" shadow="0">
      <root>
        <mxCell id="0" />
        <mxCell id="1" parent="0" />
        <mxCell id="-jMpuxN0oTvsBR8SRACN-44" value="" style="edgeStyle=orthogonalEdgeStyle;rounded=0;orthogonalLoop=1;jettySize=auto;html=1;entryX=0;entryY=0.5;entryDx=0;entryDy=0;exitX=0.5;exitY=0;exitDx=0;exitDy=0;" edge="1" parent="1" source="-jMpuxN0oTvsBR8SRACN-3" target="-jMpuxN0oTvsBR8SRACN-40">
          <mxGeometry relative="1" as="geometry">
            <mxPoint x="283" y="-929" as="sourcePoint" />
          </mxGeometry>
        </mxCell>
        <mxCell id="-jMpuxN0oTvsBR8SRACN-82" value="" style="edgeStyle=orthogonalEdgeStyle;rounded=0;orthogonalLoop=1;jettySize=auto;html=1;entryX=0;entryY=0.5;entryDx=0;entryDy=0;exitX=0.5;exitY=1;exitDx=0;exitDy=0;" edge="1" parent="1" source="-jMpuxN0oTvsBR8SRACN-3" target="-jMpuxN0oTvsBR8SRACN-68">
          <mxGeometry relative="1" as="geometry">
            <mxPoint x="282" y="-429" as="targetPoint" />
          </mxGeometry>
        </mxCell>
        <mxCell id="-jMpuxN0oTvsBR8SRACN-83" value="&lt;font style=&quot;font-size: 14px;&quot;&gt;async&lt;/font&gt;" style="edgeLabel;html=1;align=center;verticalAlign=middle;resizable=0;points=[];" vertex="1" connectable="0" parent="-jMpuxN0oTvsBR8SRACN-82">
          <mxGeometry x="0.237" y="-4" relative="1" as="geometry">
            <mxPoint y="-14" as="offset" />
          </mxGeometry>
        </mxCell>
        <mxCell id="-jMpuxN0oTvsBR8SRACN-3" value="API Gateway" style="swimlane;html=1;fillColor=#ffffff;whiteSpace=wrap" vertex="1" parent="1">
          <mxGeometry x="162" y="-902" width="240" height="282" as="geometry" />
        </mxCell>
        <mxCell id="-jMpuxN0oTvsBR8SRACN-23" value="Function&amp;nbsp;&lt;div&gt;Registration&lt;/div&gt;" style="rounded=1;whiteSpace=wrap;html=1;" vertex="1" parent="-jMpuxN0oTvsBR8SRACN-3">
          <mxGeometry x="50" y="50" width="120" height="60" as="geometry" />
        </mxCell>
        <mxCell id="-jMpuxN0oTvsBR8SRACN-24" value="Function&amp;nbsp;&lt;div&gt;Execution&lt;/div&gt;" style="rounded=1;whiteSpace=wrap;html=1;" vertex="1" parent="-jMpuxN0oTvsBR8SRACN-3">
          <mxGeometry x="50" y="178" width="120" height="60" as="geometry" />
        </mxCell>
        <mxCell id="-jMpuxN0oTvsBR8SRACN-61" value="" style="edgeStyle=orthogonalEdgeStyle;rounded=0;orthogonalLoop=1;jettySize=auto;html=1;" edge="1" parent="1" source="-jMpuxN0oTvsBR8SRACN-4" target="-jMpuxN0oTvsBR8SRACN-23">
          <mxGeometry relative="1" as="geometry" />
        </mxCell>
        <mxCell id="-jMpuxN0oTvsBR8SRACN-4" value="" style="shape=umlActor;verticalLabelPosition=bottom;verticalAlign=top;html=1;outlineConnect=0;" vertex="1" parent="1">
          <mxGeometry x="40" y="-851" width="30" height="60" as="geometry" />
        </mxCell>
        <mxCell id="-jMpuxN0oTvsBR8SRACN-49" value="" style="edgeStyle=orthogonalEdgeStyle;rounded=0;orthogonalLoop=1;jettySize=auto;html=1;entryX=0;entryY=0.5;entryDx=0;entryDy=0;exitX=1;exitY=0.25;exitDx=0;exitDy=0;" edge="1" parent="1" source="-jMpuxN0oTvsBR8SRACN-10" target="-jMpuxN0oTvsBR8SRACN-46">
          <mxGeometry relative="1" as="geometry">
            <mxPoint x="805" y="-758" as="targetPoint" />
          </mxGeometry>
        </mxCell>
        <mxCell id="-jMpuxN0oTvsBR8SRACN-56" value="" style="edgeStyle=orthogonalEdgeStyle;rounded=0;orthogonalLoop=1;jettySize=auto;html=1;entryX=1;entryY=0.5;entryDx=0;entryDy=0;exitX=0.5;exitY=0;exitDx=0;exitDy=0;" edge="1" parent="1" source="-jMpuxN0oTvsBR8SRACN-10" target="-jMpuxN0oTvsBR8SRACN-40">
          <mxGeometry relative="1" as="geometry">
            <mxPoint x="623" y="-929" as="sourcePoint" />
            <mxPoint x="623.0000000000002" y="-1009" as="targetPoint" />
          </mxGeometry>
        </mxCell>
        <mxCell id="-jMpuxN0oTvsBR8SRACN-60" value="" style="edgeStyle=orthogonalEdgeStyle;rounded=0;orthogonalLoop=1;jettySize=auto;html=1;entryX=0;entryY=0.5;entryDx=0;entryDy=0;" edge="1" parent="1" source="-jMpuxN0oTvsBR8SRACN-10" target="-jMpuxN0oTvsBR8SRACN-57">
          <mxGeometry relative="1" as="geometry" />
        </mxCell>
        <mxCell id="-jMpuxN0oTvsBR8SRACN-72" value="" style="edgeStyle=orthogonalEdgeStyle;rounded=0;orthogonalLoop=1;jettySize=auto;html=1;entryX=0;entryY=0.5;entryDx=0;entryDy=0;exitX=1;exitY=0.75;exitDx=0;exitDy=0;" edge="1" parent="1" source="-jMpuxN0oTvsBR8SRACN-10" target="-jMpuxN0oTvsBR8SRACN-64">
          <mxGeometry relative="1" as="geometry">
            <mxPoint x="623" y="-438" as="targetPoint" />
          </mxGeometry>
        </mxCell>
        <mxCell id="-jMpuxN0oTvsBR8SRACN-10" value="Function Manager" style="swimlane;html=1;fillColor=#ffffff;whiteSpace=wrap" vertex="1" parent="1">
          <mxGeometry x="513" y="-888" width="220" height="260" as="geometry" />
        </mxCell>
        <mxCell id="-jMpuxN0oTvsBR8SRACN-25" value="Python Function Manager" style="rounded=1;whiteSpace=wrap;html=1;" vertex="1" parent="-jMpuxN0oTvsBR8SRACN-10">
          <mxGeometry x="50" y="47" width="120" height="60" as="geometry" />
        </mxCell>
        <mxCell id="-jMpuxN0oTvsBR8SRACN-33" value="Golang Function Manager" style="rounded=1;whiteSpace=wrap;html=1;" vertex="1" parent="-jMpuxN0oTvsBR8SRACN-10">
          <mxGeometry x="50" y="117" width="120" height="60" as="geometry" />
        </mxCell>
        <mxCell id="-jMpuxN0oTvsBR8SRACN-77" value="Cleanup Service" style="rounded=1;whiteSpace=wrap;html=1;" vertex="1" parent="-jMpuxN0oTvsBR8SRACN-10">
          <mxGeometry x="47" y="192" width="120" height="60" as="geometry" />
        </mxCell>
        <mxCell id="-jMpuxN0oTvsBR8SRACN-32" value="" style="edgeStyle=orthogonalEdgeStyle;rounded=0;orthogonalLoop=1;jettySize=auto;html=1;entryX=0;entryY=0.75;entryDx=0;entryDy=0;" edge="1" parent="1" source="-jMpuxN0oTvsBR8SRACN-24" target="-jMpuxN0oTvsBR8SRACN-10">
          <mxGeometry relative="1" as="geometry">
            <mxPoint x="355" y="-688" as="targetPoint" />
          </mxGeometry>
        </mxCell>
        <mxCell id="-jMpuxN0oTvsBR8SRACN-36" value="" style="edgeStyle=orthogonalEdgeStyle;rounded=0;orthogonalLoop=1;jettySize=auto;html=1;entryX=0;entryY=0.25;entryDx=0;entryDy=0;" edge="1" parent="1" source="-jMpuxN0oTvsBR8SRACN-23" target="-jMpuxN0oTvsBR8SRACN-10">
          <mxGeometry relative="1" as="geometry">
            <mxPoint x="505" y="-808" as="targetPoint" />
          </mxGeometry>
        </mxCell>
        <mxCell id="-jMpuxN0oTvsBR8SRACN-38" value="Storage" style="swimlane;html=1;fillColor=#ffffff;whiteSpace=wrap" vertex="1" parent="1">
          <mxGeometry x="163" y="-1105" width="572" height="136" as="geometry" />
        </mxCell>
        <mxCell id="-jMpuxN0oTvsBR8SRACN-40" value="Logs Manager" style="rounded=1;whiteSpace=wrap;html=1;" vertex="1" parent="-jMpuxN0oTvsBR8SRACN-38">
          <mxGeometry x="214" y="46" width="120" height="60" as="geometry" />
        </mxCell>
        <mxCell id="-jMpuxN0oTvsBR8SRACN-46" value="Distributed Cache" style="swimlane;html=1;fillColor=#ffffff;whiteSpace=wrap" vertex="1" parent="1">
          <mxGeometry x="875" y="-1062" width="230" height="162" as="geometry" />
        </mxCell>
        <mxCell id="-jMpuxN0oTvsBR8SRACN-47" value="Container Cache" style="rounded=1;whiteSpace=wrap;html=1;" vertex="1" parent="-jMpuxN0oTvsBR8SRACN-46">
          <mxGeometry x="43.5" y="51" width="120" height="60" as="geometry" />
        </mxCell>
        <mxCell id="-jMpuxN0oTvsBR8SRACN-57" value="Storage" style="swimlane;html=1;fillColor=#ffffff;whiteSpace=wrap" vertex="1" parent="1">
          <mxGeometry x="875" y="-869" width="230" height="220" as="geometry" />
        </mxCell>
        <mxCell id="-jMpuxN0oTvsBR8SRACN-41" value="Function Storage" style="rounded=1;whiteSpace=wrap;html=1;" vertex="1" parent="-jMpuxN0oTvsBR8SRACN-57">
          <mxGeometry x="55" y="43" width="120" height="60" as="geometry" />
        </mxCell>
        <mxCell id="-jMpuxN0oTvsBR8SRACN-50" value="MetaData Storage" style="rounded=1;whiteSpace=wrap;html=1;" vertex="1" parent="-jMpuxN0oTvsBR8SRACN-57">
          <mxGeometry x="55" y="140" width="120" height="60" as="geometry" />
        </mxCell>
        <mxCell id="-jMpuxN0oTvsBR8SRACN-62" value="" style="edgeStyle=orthogonalEdgeStyle;rounded=0;orthogonalLoop=1;jettySize=auto;html=1;" edge="1" parent="1" source="-jMpuxN0oTvsBR8SRACN-7" target="-jMpuxN0oTvsBR8SRACN-24">
          <mxGeometry relative="1" as="geometry" />
        </mxCell>
        <mxCell id="-jMpuxN0oTvsBR8SRACN-7" value="" style="shape=umlActor;verticalLabelPosition=bottom;verticalAlign=top;html=1;outlineConnect=0;" vertex="1" parent="1">
          <mxGeometry x="45" y="-724" width="30" height="60" as="geometry" />
        </mxCell>
        <mxCell id="-jMpuxN0oTvsBR8SRACN-64" value="Function Container" style="swimlane;html=1;fillColor=#ffffff;whiteSpace=wrap" vertex="1" parent="1">
          <mxGeometry x="875" y="-617" width="230" height="260" as="geometry" />
        </mxCell>
        <mxCell id="-jMpuxN0oTvsBR8SRACN-65" value="Python Base Images" style="rounded=1;whiteSpace=wrap;html=1;" vertex="1" parent="-jMpuxN0oTvsBR8SRACN-64">
          <mxGeometry x="50" y="42" width="120" height="60" as="geometry" />
        </mxCell>
        <mxCell id="-jMpuxN0oTvsBR8SRACN-66" value="Golang Base Images" style="rounded=1;whiteSpace=wrap;html=1;" vertex="1" parent="-jMpuxN0oTvsBR8SRACN-64">
          <mxGeometry x="50" y="116" width="120" height="60" as="geometry" />
        </mxCell>
        <mxCell id="-jMpuxN0oTvsBR8SRACN-73" value="Function Images" style="rounded=1;whiteSpace=wrap;html=1;" vertex="1" parent="-jMpuxN0oTvsBR8SRACN-64">
          <mxGeometry x="50" y="185" width="120" height="60" as="geometry" />
        </mxCell>
        <mxCell id="-jMpuxN0oTvsBR8SRACN-74" value="" style="edgeStyle=orthogonalEdgeStyle;rounded=0;orthogonalLoop=1;jettySize=auto;html=1;" edge="1" parent="1" source="-jMpuxN0oTvsBR8SRACN-68">
          <mxGeometry relative="1" as="geometry">
            <mxPoint x="623" y="-630" as="targetPoint" />
          </mxGeometry>
        </mxCell>
        <mxCell id="-jMpuxN0oTvsBR8SRACN-68" value="Message Broker" style="swimlane;html=1;fillColor=#ffffff;whiteSpace=wrap" vertex="1" parent="1">
          <mxGeometry x="503" y="-575" width="240" height="180" as="geometry" />
        </mxCell>
        <mxCell id="-jMpuxN0oTvsBR8SRACN-70" value="Task Queues" style="rounded=1;whiteSpace=wrap;html=1;" vertex="1" parent="-jMpuxN0oTvsBR8SRACN-68">
          <mxGeometry x="60" y="60" width="120" height="80" as="geometry" />
        </mxCell>
        <mxCell id="-jMpuxN0oTvsBR8SRACN-80" value="" style="edgeStyle=orthogonalEdgeStyle;rounded=0;orthogonalLoop=1;jettySize=auto;html=1;" edge="1" parent="1" source="-jMpuxN0oTvsBR8SRACN-75">
          <mxGeometry relative="1" as="geometry">
            <mxPoint x="1105" y="-490" as="targetPoint" />
          </mxGeometry>
        </mxCell>
        <mxCell id="-jMpuxN0oTvsBR8SRACN-75" value="Monitoting" style="swimlane;html=1;fillColor=#ffffff;whiteSpace=wrap" vertex="1" parent="1">
          <mxGeometry x="1165" y="-618" width="240" height="257" as="geometry" />
        </mxCell>
        <mxCell id="-jMpuxN0oTvsBR8SRACN-76" value="Metrics Collector" style="rounded=1;whiteSpace=wrap;html=1;" vertex="1" parent="-jMpuxN0oTvsBR8SRACN-75">
          <mxGeometry x="60" y="43" width="120" height="80" as="geometry" />
        </mxCell>
        <mxCell id="-jMpuxN0oTvsBR8SRACN-78" value="AutoScalling" style="rounded=1;whiteSpace=wrap;html=1;" vertex="1" parent="-jMpuxN0oTvsBR8SRACN-75">
          <mxGeometry x="63" y="150" width="120" height="80" as="geometry" />
        </mxCell>
        <mxCell id="-jMpuxN0oTvsBR8SRACN-85" value="&lt;font style=&quot;font-size: 18px;&quot;&gt;Kubernetes&lt;/font&gt;&amp;nbsp; &amp;nbsp; &amp;nbsp; &amp;nbsp;&amp;nbsp;" style="html=1;outlineConnect=0;whiteSpace=wrap;shape=mxgraph.archimate3.application;appType=grouping;archiType=square;dashed=1;fillColor=none;align=right;horizontal=1;verticalAlign=top;" vertex="1" parent="1">
          <mxGeometry x="125" y="-1140" width="1400" height="840" as="geometry" />
        </mxCell>
      </root>
    </mxGraphModel>
  </diagram>
</mxfile>
